<svg width="1524" height="674" viewBox="0 0 1524 674" fill="none" xmlns="http://www.w3.org/2000/svg">
<path fill-rule="evenodd" clip-rule="evenodd" d="M960 0H731.3C704 0 681.9 22.1 681.9 49.4V217.1H699.9V49.7C699.9 35.3 711.9 23.6 726.8 23.6H778V34.5C778 38 781 40.9 784.6 40.9H879.2C882.9 40.9 885.8 38 885.8 34.5V23.6H937C951.9 23.6 963.9 35.3 963.9 49.7V230.9H981.6V45.9C981.6 24.8 963.9 7.7 942.1 7.7C940.4 7.7 939.1 6.4 939.1 4.7C939.1 3 940.4 1.7 942.1 1.7C967.2 1.7 987.6 21.5 987.6 45.9V230.9H1009.5V49.4C1009.5 22.1 987.3 0 960 0Z" fill="#2E186A"/>
<rect x="681.9" y="358.5" width="18" height="200.1" fill="#2E186A"/>
<path fill-rule="evenodd" clip-rule="evenodd" d="M963.9 289.1V424.9L981.6 428.1V289.1H963.9Z" fill="#2E186A"/>
<path fill-rule="evenodd" clip-rule="evenodd" d="M981.6 607V606.9V454.4L963.9 451.6V615C963.9 629.4 951.9 641.1 937 641.1H726.8C712.6 641.1 700.9 630.4 700 616.8H682C683.4 642.8 705.7 665.2 732 665.2L945.7 663.5C945.7 662.1 946.6 660.9 948 660.6C962.5 657.1 972.6 647.2 977.9 631.1C982 618.6 981.6 607.1 981.6 607Z" fill="#2E186A"/>
<path fill-rule="evenodd" clip-rule="evenodd" d="M987.6 289.1V430.8L998.5 441.8L987.6 449V606.8C987.6 607.9 987.9 619.7 983.7 632.7C978.9 647.5 970 658 957.9 663.5H960C987.3 663.5 1009.4 641.4 1009.4 614.1V289.1H987.6Z" fill="#2E186A"/>
<path fill-rule="evenodd" clip-rule="evenodd" d="M945.8 664.1C946.1 665.5 947.4 666.4 948.7 666.4C948.9 666.4 949.2 666.4 949.4 666.3C952.4 665.6 955.2 664.6 957.9 663.4H945.7C945.7 663.7 945.7 663.9 945.8 664.1Z" fill="#2E186A"/>
<path fill-rule="evenodd" clip-rule="evenodd" d="M899.755 193.611C900.633 192.206 902.483 191.777 903.889 192.655C921.192 203.456 940.905 209.031 966.244 209.4C967.901 209.424 969.224 210.787 969.2 212.443C969.176 214.1 967.813 215.423 966.157 215.399C939.746 215.015 918.962 209.137 900.712 197.744C899.306 196.867 898.878 195.016 899.755 193.611Z" fill="#2E186A"/>
<path fill-rule="evenodd" clip-rule="evenodd" d="M712.07 84.5776C725.288 82.5989 736.261 81.7104 747.985 82.1454C763.457 82.7193 778.101 85.7041 791.975 91.6865C804.48 97.0789 816.09 104.814 826.703 115.16C832.234 120.597 837.68 126.289 843.417 132.578C844.533 133.802 844.446 135.699 843.222 136.816C841.998 137.933 840.101 137.846 838.984 136.622C833.316 130.409 827.945 124.794 822.506 119.448C812.43 109.626 801.435 102.3 789.599 97.196C776.45 91.5262 762.53 88.689 747.763 88.1413C736.835 87.7359 726.527 88.5289 714.198 90.3282L712.947 90.5148C712.039 90.663 701.403 92.3312 698.255 92.7303L697.835 92.7811C696.188 92.9658 694.704 91.7808 694.519 90.1342C694.334 88.4877 695.519 87.0032 697.166 86.8185L697.895 86.7272C701.564 86.239 712.833 84.4634 712.07 84.5776Z" fill="#2E186A"/>
<path fill-rule="evenodd" clip-rule="evenodd" d="M697.156 470.719C708.479 469.413 721.429 469.159 735.313 470.616C736.961 470.789 738.157 472.265 737.984 473.913C737.811 475.56 736.335 476.756 734.687 476.583C721.272 475.175 708.755 475.421 697.844 476.68C696.198 476.87 694.71 475.689 694.52 474.043C694.33 472.397 695.51 470.909 697.156 470.719Z" fill="#2E186A"/>
<path fill-rule="evenodd" clip-rule="evenodd" d="M810.457 502.825C811.492 501.531 813.38 501.322 814.674 502.357C818.926 505.758 822.869 509.224 826.694 512.951L829.076 515.265C854.397 539.779 868.678 550.735 885.874 557.958C904.501 565.783 926.528 568.778 966.239 569.3C967.896 569.321 969.221 570.682 969.2 572.339C969.178 573.995 967.817 575.321 966.16 575.299C926.144 574.773 903.511 571.745 884.137 563.734L883.551 563.49C864.942 555.673 849.832 543.885 822.506 517.248C818.825 513.661 815.029 510.324 810.926 507.042C809.632 506.007 809.422 504.119 810.457 502.825Z" fill="#2E186A"/>
<path fill-rule="evenodd" clip-rule="evenodd" d="M900.301 131.1H769.001C767.068 131.1 765.501 132.667 765.501 134.6V265.9C765.501 267.833 767.068 269.4 769.001 269.4H900.301C902.234 269.4 903.801 267.833 903.801 265.9V134.6C903.801 132.667 902.234 131.1 900.301 131.1ZM896.801 138.099V262.399H772.501V138.099H896.801Z" fill="#FE7624"/>
<path fill-rule="evenodd" clip-rule="evenodd" d="M805.101 273.6H771.301C769.368 273.6 767.801 275.167 767.801 277.1V310.9C767.801 312.833 769.368 314.4 771.301 314.4H805.101C807.034 314.4 808.601 312.833 808.601 310.9V277.1C808.601 275.167 807.034 273.6 805.101 273.6ZM801.6 280.599V307.399H774.8V280.599H801.6Z" fill="#FE7624"/>
<path fill-rule="evenodd" clip-rule="evenodd" d="M802.626 274.625C803.993 273.258 806.209 273.258 807.576 274.625C808.894 275.943 808.941 278.05 807.717 279.425L807.576 279.574L773.776 313.374C772.409 314.741 770.193 314.741 768.826 313.374C767.508 312.056 767.461 309.949 768.685 308.574L768.826 308.425L802.626 274.625Z" fill="#FE7624"/>
<path fill-rule="evenodd" clip-rule="evenodd" d="M851.2 273.6H817.4C815.467 273.6 813.9 275.167 813.9 277.1V310.9C813.9 312.833 815.467 314.4 817.4 314.4H851.2C853.133 314.4 854.7 312.833 854.7 310.9V277.1C854.7 275.167 853.133 273.6 851.2 273.6ZM847.699 280.6V307.4H820.899V280.6H847.699Z" fill="#FE7624"/>
<path fill-rule="evenodd" clip-rule="evenodd" d="M848.726 274.625C850.092 273.258 852.308 273.258 853.675 274.625C854.993 275.943 855.04 278.05 853.816 279.425L853.675 279.574L819.875 313.374C818.508 314.741 816.292 314.741 814.926 313.374C813.607 312.056 813.56 309.949 814.784 308.574L814.926 308.425L848.726 274.625Z" fill="#FE7624"/>
<path fill-rule="evenodd" clip-rule="evenodd" d="M897.401 273.6H863.601C861.668 273.6 860.101 275.167 860.101 277.1V310.9C860.101 312.833 861.668 314.4 863.601 314.4H897.401C899.334 314.4 900.901 312.833 900.901 310.9V277.1C900.901 275.167 899.334 273.6 897.401 273.6ZM893.9 280.6V307.4H867.1V280.6H893.9Z" fill="#FE7624"/>
<path fill-rule="evenodd" clip-rule="evenodd" d="M894.926 274.625C896.293 273.258 898.509 273.258 899.875 274.625C901.193 275.943 901.241 278.05 900.017 279.425L899.875 279.574L866.075 313.374C864.709 314.741 862.493 314.741 861.126 313.374C859.808 312.056 859.761 309.949 860.984 308.574L861.126 308.425L894.926 274.625Z" fill="#FE7624"/>
<path fill-rule="evenodd" clip-rule="evenodd" d="M910.901 347H763.501C747.068 347 733.801 360.267 733.801 376.7V393.6C733.801 410.033 747.068 423.3 763.501 423.3H910.901C927.301 423.3 940.601 409.965 940.601 393.6V376.7C940.601 360.267 927.334 347 910.901 347ZM763.501 354H910.901C923.468 354 933.601 364.133 933.601 376.7V393.6C933.601 406.104 923.431 416.3 910.901 416.3H763.501C750.934 416.3 740.801 406.167 740.801 393.6V376.7C740.801 364.133 750.934 354 763.501 354Z" fill="#FE7624"/>
<path fill-rule="evenodd" clip-rule="evenodd" d="M909.901 430.199H762.501C746.068 430.199 732.801 443.466 732.801 459.899V476.799C732.801 493.232 746.068 506.499 762.501 506.499H909.901C926.301 506.499 939.601 493.165 939.601 476.799V459.899C939.601 443.466 926.334 430.199 909.901 430.199ZM762.501 437.199H909.901C922.468 437.199 932.601 447.332 932.601 459.899V476.799C932.601 489.303 922.431 499.499 909.901 499.499H762.501C749.934 499.499 739.801 489.366 739.801 476.799V459.899C739.801 447.332 749.934 437.199 762.501 437.199Z" fill="#FE7624"/>
<path fill-rule="evenodd" clip-rule="evenodd" d="M895.514 133.137C896.874 131.764 899.09 131.752 900.463 133.112C901.788 134.424 901.846 136.531 900.629 137.912L900.488 138.062L771.488 268.362C770.128 269.736 767.912 269.747 766.539 268.387C765.214 267.075 765.156 264.968 766.373 263.587L766.514 263.437L895.514 133.137Z" fill="#FE7624"/>
<path fill-rule="evenodd" clip-rule="evenodd" d="M722.701 214.1H520.001C506.244 214.1 495.101 225.243 495.101 239V336.6C495.101 350.356 506.244 361.5 520.001 361.5H722.701C736.44 361.5 747.601 350.374 747.601 336.7V239C747.601 225.243 736.457 214.1 722.701 214.1ZM520.001 220.1H722.701C733.144 220.1 741.601 228.556 741.601 239V336.7C741.601 347.056 733.13 355.5 722.701 355.5H520.001C509.557 355.5 501.101 347.043 501.101 336.6V239C501.101 228.556 509.557 220.1 520.001 220.1Z" fill="#2E186A"/>
<path fill-rule="evenodd" clip-rule="evenodd" d="M593.9 281.5H593.2C591.1 281.5 589.5 279.8 589.5 277.8V274.1C589.5 272 591.2 270.4 593.2 270.4H593.9C596 270.4 597.6 272.1 597.6 274.1V277.8C597.6 279.8 595.9 281.5 593.9 281.5Z" fill="#FE7624"/>
<path fill-rule="evenodd" clip-rule="evenodd" d="M581.3 281.5H535.4C532.6 281.5 530.4 279.3 530.4 276.5V275.4C530.4 272.6 532.6 270.4 535.4 270.4H581.3C584.1 270.4 586.3 272.6 586.3 275.4V276.5C586.3 279.3 584.1 281.5 581.3 281.5Z" fill="#2E186A"/>
<path fill-rule="evenodd" clip-rule="evenodd" d="M586.4 333.2H535.4C532.6 333.2 530.4 331 530.4 328.2V327.1C530.4 324.3 532.6 322.1 535.4 322.1H586.4C589.2 322.1 591.4 324.3 591.4 327.1V328.2C591.4 331 589.1 333.2 586.4 333.2Z" fill="#2E186A"/>
<path fill-rule="evenodd" clip-rule="evenodd" d="M635.4 316H550.9C548.1 316 545.9 313.8 545.9 311V309.9C545.9 307.1 548.1 304.9 550.9 304.9H635.4C638.2 304.9 640.4 307.1 640.4 309.9V311C640.4 313.8 638.1 316 635.4 316Z" fill="#FE7624"/>
<path fill-rule="evenodd" clip-rule="evenodd" d="M691.701 316H650.601C647.801 316 645.601 313.8 645.601 311V309.9C645.601 307.1 647.801 304.9 650.601 304.9H691.701C694.501 304.9 696.701 307.1 696.701 309.9V311C696.701 313.8 694.501 316 691.701 316Z" fill="#FE7624"/>
<path fill-rule="evenodd" clip-rule="evenodd" d="M710.3 298.799H709.6C707.5 298.799 705.9 297.099 705.9 295.099V291.399C705.9 289.299 707.6 287.699 709.6 287.699H710.3C712.4 287.699 714 289.399 714 291.399V295.099C714 297.099 712.4 298.799 710.3 298.799Z" fill="#2E186A"/>
<path fill-rule="evenodd" clip-rule="evenodd" d="M623.2 298.799H535.4C532.6 298.799 530.4 296.599 530.4 293.799V292.699C530.4 289.899 532.6 287.699 535.4 287.699H623.2C626 287.699 628.2 289.899 628.2 292.699V293.799C628.2 296.499 625.9 298.799 623.2 298.799Z" fill="#2E186A"/>
<path fill-rule="evenodd" clip-rule="evenodd" d="M652.1 281.5H606.2C603.4 281.5 601.2 279.3 601.2 276.5V275.4C601.2 272.6 603.4 270.4 606.2 270.4H652.1C654.9 270.4 657.1 272.6 657.1 275.4V276.5C657.1 279.3 654.8 281.5 652.1 281.5Z" fill="#2E186A"/>
<path fill-rule="evenodd" clip-rule="evenodd" d="M696.5 298.8H637.5C634.7 298.8 632.5 296.6 632.5 293.8V292.6C632.5 289.8 634.7 287.6 637.5 287.6H696.5C699.3 287.6 701.5 289.8 701.5 292.6V293.8C701.5 296.5 699.3 298.8 696.5 298.8Z" fill="#FE7624"/>
<path fill-rule="evenodd" clip-rule="evenodd" d="M540.901 246.199L555.301 237.499C555.501 237.399 555.801 237.299 556.001 237.299C556.401 237.299 556.701 237.399 557.001 237.699C557.301 237.999 557.401 238.299 557.401 238.699C557.401 239.199 557.201 239.599 556.701 239.999L544.301 247.399L556.701 254.799C557.201 255.099 557.401 255.499 557.401 256.099C557.401 256.499 557.301 256.799 557.001 257.099C556.701 257.399 556.401 257.499 556.001 257.499C555.701 257.499 555.501 257.399 555.301 257.299L540.901 248.599C540.401 248.299 540.101 247.799 540.101 247.299C540.101 246.999 540.401 246.499 540.901 246.199Z" fill="#2E186A"/>
<path fill-rule="evenodd" clip-rule="evenodd" d="M572.4 232C572.7 231.7 573 231.6 573.4 231.6C573.8 231.6 574.1 231.7 574.4 232C574.7 232.3 574.8 232.6 574.8 233C574.8 233.2 574.8 233.4 574.7 233.6L563.1 262.6C563 262.7 562.9 262.9 562.8 263C562.5 263.3 562.2 263.4 561.8 263.4C561.4 263.4 561.1 263.3 560.8 263C560.5 262.7 560.4 262.4 560.4 262C560.4 261.8 560.4 261.6 560.5 261.4L572.1 232.4C572.2 232.2 572.3 232.1 572.4 232Z" fill="#2E186A"/>
<path fill-rule="evenodd" clip-rule="evenodd" d="M595.2 247.5C595.2 248 594.9 248.5 594.4 248.8L580 257.5C579.8 257.6 579.5 257.7 579.3 257.7C578.9 257.7 578.6 257.6 578.3 257.3C578 257 577.9 256.7 577.9 256.3C577.9 255.8 578.1 255.4 578.6 255L591 247.6L578.6 240.2C578.1 239.9 577.9 239.5 577.9 238.9C577.9 238.5 578 238.2 578.3 237.9C578.6 237.6 578.9 237.5 579.3 237.5C579.6 237.5 579.8 237.6 580 237.7L594.4 246.4C594.9 246.5 595.2 247 595.2 247.5Z" fill="#2E186A"/>
<path fill-rule="evenodd" clip-rule="evenodd" d="M1242.3 550.699C1242.8 536.499 1235 523.399 1222.4 516.899L1191.2 499.799L1188.8 510.499C1186.2 522.199 1174.6 529.699 1162.8 527.099C1151.1 524.499 1143.6 512.899 1146.2 501.099L1149.3 486.999C1145.4 484.299 1142.3 480.599 1140.8 475.799C1140.5 474.899 1140.3 473.999 1140.1 473.099C1130.8 470.299 1120.8 470.499 1111.5 473.799L1065.1 490.299L1005.7 427.199L965.3 469.599L1040.7 556.299C1045.6 561.899 1053.4 563.899 1060.4 561.299L1073.2 555.499L1050.6 664.799L1071.3 665.199C1065.8 664.199 1068.5 659.799 1072.1 658.499C1074.4 657.699 1077.7 656.199 1080.5 655.099C1076.8 656.299 1072 658.099 1069.2 659.899C1065.6 661.299 1061.6 658.899 1061.2 657.699C1060.9 656.899 1062.3 655.399 1064.8 653.599L1063.9 653.999C1057 655.699 1053.7 655.299 1055.5 651.499C1056.8 648.899 1074.3 639.799 1077.7 638.799C1081.1 637.799 1111 633.499 1111 633.499L1118.7 665.299L1224.3 665.999C1235.2 665.999 1243.9 658.699 1243.8 647.799L1242.3 550.699ZM1189 618.899L1116.6 634.999C1116.4 634.999 1116.2 635.099 1115.9 635.099C1114.5 635.099 1113.3 634.099 1113 632.699C1112.6 631.099 1113.7 629.499 1115.3 629.099L1185.1 613.599L1182.5 577.499C1182.4 575.799 1183.6 574.399 1185.3 574.299C1187 574.199 1188.4 575.399 1188.5 577.099L1191.3 615.799C1191.4 617.199 1190.4 618.499 1189 618.899Z" fill="#2E186A"/>
<path fill-rule="evenodd" clip-rule="evenodd" d="M937.702 435.328L935.759 434.602C935.281 434.426 934.806 434.254 934.455 434.133L933.911 433.949L933.701 433.88L934.203 434.239L934.539 434.474C936.84 436.076 939.78 437.909 943.145 439.874L944.426 440.617C946.861 442.055 949.785 443.269 953.093 444.262C956.972 445.428 961.161 446.232 965.354 446.735C966.614 446.886 967.797 447 968.877 447.082L969.409 447.12C969.832 447.149 970.206 447.17 970.526 447.186L970.889 447.201C972.545 447.25 973.848 448.632 973.799 450.288C973.75 451.944 972.368 453.247 970.711 453.198L970.127 453.174C969.823 453.158 969.445 453.136 969 453.106C967.681 453.016 966.216 452.881 964.64 452.692C960.128 452.151 955.612 451.284 951.367 450.009C947.875 448.96 944.714 447.675 941.982 446.133L939.942 444.954C930.106 439.228 925.007 435.55 924.451 432.348C923.889 429.329 925.823 427.255 928.643 426.973C930.114 426.825 931.85 427.103 933.95 427.688C934.69 427.894 935.459 428.136 936.264 428.41L936.959 428.654C937.425 428.821 937.955 429.016 938.425 429.19L939.699 429.67C941.261 430.222 942.081 431.935 941.529 433.498C940.978 435.06 939.264 435.88 937.702 435.328Z" fill="#2E186A"/>
<path fill-rule="evenodd" clip-rule="evenodd" d="M927.944 425.511C927.111 420.698 930.942 417.9 935.761 418.606C939.792 419.197 944.204 421.987 947.651 426.336C948.681 427.634 948.462 429.521 947.164 430.551C945.866 431.58 943.979 431.362 942.95 430.063C940.403 426.851 937.315 424.898 934.891 424.543C934.708 424.516 934.543 424.501 934.397 424.494L934.217 424.489L934.31 424.589C934.686 424.989 935.17 425.471 935.748 426.021L936.002 426.26C937.712 427.87 940.077 429.931 942.7 432.101L943.827 433.027C948.954 437.212 953.918 440.887 956.257 442.177C960.946 444.782 967.539 446.907 975.873 448.237C976.603 448.354 977.261 448.734 977.725 449.303L977.846 449.463L982.746 456.363C983.706 457.714 983.388 459.586 982.038 460.546C980.739 461.468 978.957 461.21 977.969 459.988L977.855 459.837L973.677 453.954L973.36 453.9C965.35 452.496 958.793 450.354 953.827 447.686L953.351 447.426C950.556 445.884 945.197 441.91 939.683 437.389L938.121 436.098C931.581 430.657 928.253 427.465 927.944 425.511Z" fill="#2E186A"/>
<path fill-rule="evenodd" clip-rule="evenodd" d="M946.081 416.405C946.965 415.001 948.602 414.325 950.472 414.443C952.037 414.541 953.937 415.171 956.325 416.358L956.784 416.591L958.763 417.648C959.997 418.303 961.245 418.957 962.459 419.582L964.01 420.374C966.107 421.437 967.831 422.269 969.019 422.784L969.468 422.974L970.085 423.064C970.867 423.18 971.735 423.323 972.669 423.493C975.343 423.981 978.02 424.597 980.539 425.355C985.154 426.745 988.738 428.443 990.979 430.633L998.553 438.308L999.022 438.778C1000.19 439.95 1000.19 441.849 999.022 443.021C997.85 444.192 995.951 444.192 994.779 443.021L986.786 434.927C985.366 433.561 982.547 432.226 978.81 431.101C976.528 430.414 974.061 429.846 971.591 429.396C970.725 429.237 969.921 429.105 969.202 428.998L968.333 428.877C968.087 428.846 967.845 428.785 967.613 428.695L967.176 428.52C965.796 427.95 963.8 426.994 961.298 425.727L960.635 425.389C959.493 424.806 958.311 424.193 957.131 423.572L955.013 422.449L953.936 421.871L953.618 421.71L953.889 421.943C955.246 423.097 957.027 424.463 958.827 425.735L959.242 426.027C959.851 426.451 960.433 426.845 960.966 427.193L961.179 427.33L961.517 427.523L962.207 427.904C962.429 428.026 962.643 428.141 962.849 428.251L963.742 428.716C966.822 430.256 965.304 434.925 961.907 434.359C961.257 434.25 960.082 433.665 958.661 432.807L958.521 432.72L957.67 432.238C956.45 431.534 955.238 430.794 954.066 430.026L953.196 429.446C950.598 427.679 948.474 425.938 946.961 424.213C946.676 423.887 946.412 423.562 946.17 423.236L946.131 423.181C945.763 422.858 945.285 422.577 944.736 422.353L944.58 422.292L944.717 422.477C945.325 423.293 946.067 424.243 946.976 425.38L948.129 426.808C949.217 428.147 950.964 429.662 953.169 431.23C954.699 432.319 956.352 433.365 958.005 434.327L958.679 434.713C958.896 434.837 959.106 434.954 959.307 435.065L960.177 435.534C961.649 436.294 962.226 438.104 961.466 439.576C960.706 441.048 958.896 441.625 957.424 440.865L956.733 440.496C956.205 440.209 955.619 439.88 954.99 439.514C953.188 438.466 951.386 437.325 949.692 436.12C947.084 434.265 944.963 432.425 943.472 430.591L942.323 429.168C940.62 427.043 939.455 425.504 938.585 424.21C937.913 423.209 937.429 422.366 937.119 421.611C936.516 420.141 936.397 418.788 937.433 417.458C938.904 415.565 942.584 415.371 945.915 416.427L946.043 416.469L946.081 416.405Z" fill="#2E186A"/>
<path fill-rule="evenodd" clip-rule="evenodd" d="M1113.87 632.623L1113.92 632.794L1121.62 664.594C1122.06 666.425 1120.73 668.19 1118.88 668.295L1118.7 668.3L1075.5 668.299L1075.26 668.314C1069.57 668.625 1065.76 667.067 1065.3 663.435L1065.28 663.258L1065.17 663.243C1062.12 662.74 1059.35 661.049 1058.52 658.931L1058.45 658.749C1058.37 658.505 1058.32 658.26 1058.29 658.013L1058.28 657.954L1058.03 657.96C1057.26 657.968 1056.57 657.909 1055.95 657.777L1055.72 657.725C1052.14 656.839 1051.17 653.625 1052.82 650.159C1053.83 648.138 1057.77 645.541 1064.37 641.921L1065.47 641.32C1070.26 638.736 1075.01 636.464 1076.85 635.922L1077.16 635.839C1078.92 635.39 1083.69 634.582 1091.07 633.439L1093.74 633.028L1099.43 632.168L1106.47 631.127L1110.57 630.531C1112.05 630.319 1113.44 631.217 1113.87 632.623ZM1114.89 662.299L1108.73 636.86L1106.18 637.233C1103.23 637.667 1100.28 638.105 1097.44 638.534L1092.07 639.355C1084.8 640.483 1079.82 641.329 1078.61 641.659L1078.55 641.678C1077.16 642.087 1072.25 644.454 1067.59 646.998L1067.26 647.18C1064.68 648.593 1062.39 649.943 1060.69 651.066L1060.12 651.444C1060.03 651.505 1059.95 651.565 1059.86 651.624L1059.59 651.815L1059.64 651.808C1060.43 651.693 1061.36 651.514 1062.43 651.267L1063.21 651.08L1063.44 650.925C1064.78 650.016 1066.33 649.128 1068.04 648.277L1068.38 648.107C1069.38 647.614 1070.47 647.11 1071.63 646.599C1073.75 645.667 1076.02 644.752 1078.28 643.89L1079.2 643.542C1079.49 643.431 1079.78 643.324 1080.05 643.223L1081.3 642.771C1082.87 642.22 1084.58 643.041 1085.13 644.604C1085.66 646.111 1084.92 647.758 1083.46 648.367L1082.52 648.711C1081.88 648.942 1081.18 649.205 1080.41 649.496C1078.24 650.325 1076.07 651.204 1074.05 652.091C1072.96 652.57 1071.95 653.039 1071.02 653.493C1068.78 654.594 1066.85 655.806 1065.51 656.914L1065.28 657.109L1065.42 657.163C1066.25 657.438 1067.08 657.501 1067.79 657.333L1067.99 657.279L1068.01 657.266C1069.71 656.228 1071.96 655.184 1074.66 654.123L1075.21 653.911C1076.26 653.507 1077.34 653.112 1078.44 652.73L1078.79 652.612L1080.67 651.863C1084.02 650.553 1085 650.378 1086.24 650.668L1086.33 650.69C1089.31 651.435 1089.37 655.649 1086.42 656.487L1085.66 656.71L1084.46 657.071C1084.18 657.158 1083.89 657.249 1083.6 657.344C1082.89 657.569 1082.18 657.8 1081.47 658.037L1080.9 658.233L1074.69 660.756L1073.19 661.333C1072.74 661.49 1072.29 661.745 1071.93 662.044L1071.75 662.194L1071.8 662.204C1072.52 662.342 1073.55 662.397 1074.86 662.327L1075.2 662.307L1075.4 662.3L1114.89 662.299Z" fill="#2E186A"/>
<path fill-rule="evenodd" clip-rule="evenodd" d="M1195.4 473.343C1195.82 471.74 1197.46 470.779 1199.06 471.198C1200.6 471.601 1201.55 473.139 1201.24 474.686L1201.2 474.858L1191.71 511.213L1191.64 511.55C1188.53 524.537 1175.67 532.781 1162.55 530.114L1162.15 530.029C1148.93 527.092 1140.49 514.1 1143.19 500.849L1143.27 500.447L1146.17 487.447C1146.53 485.83 1148.14 484.812 1149.75 485.172C1151.31 485.52 1152.32 487.023 1152.06 488.58L1152.03 488.754L1149.13 501.746C1146.9 511.889 1153.33 521.922 1163.45 524.171C1173.48 526.381 1183.4 520.115 1185.8 510.182L1185.9 509.743L1195.4 473.343Z" fill="#2E186A"/>
<path fill-rule="evenodd" clip-rule="evenodd" d="M1178.77 397.971C1181.71 398.282 1184.73 399.06 1187.7 400.171C1189.72 400.926 1191.39 401.703 1192.79 402.449C1206.33 409.675 1212.14 419.772 1212.33 431.75C1212.4 436.077 1211.72 440.391 1210.51 444.503C1210.06 446 1209.58 447.38 1209.08 448.621L1208.97 448.885C1208.79 449.313 1208.63 449.684 1208.49 449.993L1208.28 450.423L1208.07 450.792L1204.67 457.059C1203.09 459.943 1201.64 462.572 1200.2 465.113L1199.07 467.107L1198.21 468.609C1195.05 474.076 1192.6 477.975 1191.19 479.692L1190.69 480.269C1186.01 485.62 1183.5 487.052 1174.53 489.064L1174.05 489.171C1162.17 491.824 1147.19 485.736 1143.87 474.919C1142.99 472.067 1142.55 468.715 1142.52 464.968C1142.47 460.269 1143.05 455.208 1144.05 450.109L1144.29 448.932L1144.46 448.161C1144.61 447.492 1144.78 446.767 1144.96 446.047L1145.92 442.127L1145.98 442.145C1149.64 429.66 1154.92 416.804 1161.08 406.324C1165.07 399.565 1171.09 397.158 1178.77 397.971ZM1213.32 453.702L1212.18 455.65C1211.47 456.826 1212.36 454.9 1210.9 454.9C1212.04 454.9 1213.08 454.258 1213.58 453.242L1213.63 453.152L1213.82 452.747C1214.06 452.24 1214.34 451.613 1214.64 450.87C1215.21 449.455 1215.76 447.892 1216.26 446.201C1217.64 441.543 1218.41 436.638 1218.33 431.653C1218.11 417.552 1211.14 405.438 1195.61 397.153C1193.99 396.291 1192.09 395.408 1189.8 394.551C1186.39 393.275 1182.89 392.373 1179.4 392.004C1169.7 390.978 1161.46 394.199 1156.15 402.881L1155.91 403.279C1149.48 414.224 1144.02 427.527 1140.22 440.455L1140.17 440.663C1140.14 440.802 1140.12 440.944 1140.11 441.086L1140.1 441.295L1140.1 441.263C1140.09 441.122 1140 441.341 1139.94 441.488L1139.9 441.594L1139.73 442.213L1139.64 442.544C1139.2 444.191 1138.77 445.991 1138.37 447.934C1137.17 453.743 1136.46 459.551 1136.52 465.027C1136.56 469.313 1137.07 473.224 1138.13 476.681C1142.5 490.894 1160.71 498.297 1175.35 495.028L1176.37 494.798C1186.52 492.47 1189.98 490.293 1195.78 483.556C1197.5 481.46 1200.05 477.415 1203.36 471.692L1204.64 469.462L1204.99 468.831C1206.59 466.023 1208.19 463.134 1209.93 459.937L1213.32 453.702Z" fill="#2E186A"/>
<path fill-rule="evenodd" clip-rule="evenodd" d="M1143 441.3C1146.2 430.4 1151.4 416.7 1158.4 404.8C1158.7 404.3 1159.1 403.7 1159.4 403.2C1153.7 398.7 1144.4 408 1138 426.9C1134.7 436.7 1125.6 441.7 1125.6 441.7C1132.5 447.8 1138.8 445.1 1142.9 441.7C1143 441.5 1143 441.3 1143 441.3Z" fill="#2E186A"/>
<path fill-rule="evenodd" clip-rule="evenodd" d="M1156.42 433.887C1157.03 432.348 1158.78 431.6 1160.31 432.215C1161.8 432.809 1162.55 434.453 1162.05 435.949L1161.99 436.115L1155.74 451.732L1158.92 452.879C1160.42 453.421 1161.23 455.039 1160.78 456.551L1160.72 456.719C1160.18 458.222 1158.56 459.026 1157.05 458.578L1156.88 458.523L1150.78 456.323C1149.24 455.768 1148.44 454.088 1148.95 452.556L1149.02 452.387L1156.42 433.887Z" fill="#2E186A"/>
<path fill-rule="evenodd" clip-rule="evenodd" d="M1154.26 433.737C1154.91 432.215 1154.66 430.645 1153.69 430.231C1152.73 429.818 1151.42 430.716 1150.76 432.239C1150.11 433.762 1150.36 435.332 1151.33 435.745C1152.29 436.159 1153.6 435.26 1154.26 433.737Z" fill="#2E186A"/>
<path fill-rule="evenodd" clip-rule="evenodd" d="M1171.04 440.952C1171.4 439.334 1170.86 437.839 1169.83 437.613C1168.81 437.387 1167.69 438.515 1167.33 440.133C1166.97 441.751 1167.52 443.246 1168.54 443.472C1169.56 443.698 1170.68 442.57 1171.04 440.952Z" fill="#2E186A"/>
<path fill-rule="evenodd" clip-rule="evenodd" d="M1174.26 428.501C1174.59 426.878 1176.18 425.83 1177.8 426.161C1180.57 426.724 1182.77 428.082 1184.41 429.968C1185.19 430.86 1185.79 431.81 1186.24 432.765C1186.52 433.365 1186.7 433.863 1186.8 434.216C1187.23 435.815 1186.28 437.463 1184.69 437.896C1183.14 438.314 1181.56 437.449 1181.06 435.953L1180.98 435.725C1180.96 435.649 1180.9 435.509 1180.81 435.322C1180.59 434.842 1180.28 434.357 1179.89 433.909C1179.14 433.047 1178.17 432.424 1176.9 432.107L1176.6 432.04C1174.98 431.709 1173.93 430.125 1174.26 428.501Z" fill="#2E186A"/>
<path fill-rule="evenodd" clip-rule="evenodd" d="M1153.84 415.528C1156.22 415.278 1158.54 416.029 1160.76 417.375C1161.86 418.04 1162.71 418.706 1163.24 419.197C1164.45 420.322 1164.53 422.22 1163.4 423.437C1162.32 424.607 1160.53 424.72 1159.31 423.727L1159.04 423.495C1159 423.461 1158.95 423.421 1158.89 423.375L1158.8 423.302C1158.46 423.032 1158.07 422.76 1157.65 422.508C1156.45 421.777 1155.31 421.407 1154.47 421.495C1154.18 421.525 1153.93 421.606 1153.68 421.753L1153.53 421.849C1152.18 422.806 1150.31 422.485 1149.35 421.133C1148.4 419.78 1148.72 417.908 1150.07 416.951C1151.22 416.139 1152.49 415.669 1153.84 415.528Z" fill="#2E186A"/>
<path fill-rule="evenodd" clip-rule="evenodd" d="M1247.3 441.8L1228.9 432.4C1231.2 418.7 1229.8 397.4 1204 385.4C1163.7 366.7 1149 407 1149 407L1241.3 453.6C1244.6 455.3 1248.6 454 1250.3 450.7C1251.9 447.5 1250.6 443.5 1247.3 441.8Z" fill="#FE7624"/>
<path fill-rule="evenodd" clip-rule="evenodd" d="M1154.8 469.3C1150.7 460.9 1169.9 466.6 1169.9 466.6C1169.9 466.6 1164.5 485.9 1154.8 469.3Z" fill="#2E186A"/>
<path fill-rule="evenodd" clip-rule="evenodd" d="M1226.7 446.401L1187.8 426.801C1183.3 440.901 1177.6 469.201 1201.7 476.601C1201.7 476.601 1220.6 482.801 1226 476.701C1226 476.701 1213.1 467.201 1216 459.501C1216 459.501 1229.2 479.101 1244.8 468.701C1244.8 468.501 1226.4 462.601 1226.7 446.401Z" fill="#2E186A"/>
<path fill-rule="evenodd" clip-rule="evenodd" d="M1119.5 227.9H937.7C923.943 227.9 912.8 239.044 912.8 252.8V267.2C912.8 280.957 923.943 292.1 937.7 292.1H1119.5C1133.15 292.1 1144.29 280.967 1144.4 267.225L1144.4 252.8C1144.4 239.044 1133.26 227.9 1119.5 227.9ZM937.7 233.9H1119.5C1129.94 233.9 1138.4 242.357 1138.4 252.8V267.2C1138.31 277.634 1129.85 286.1 1119.5 286.1H937.7C927.257 286.1 918.8 277.644 918.8 267.2V252.8C918.8 242.357 927.257 233.9 937.7 233.9Z" fill="#2E186A"/>
<path fill-rule="evenodd" clip-rule="evenodd" d="M1113.9 251C1115.56 251 1116.9 252.343 1116.9 254C1116.9 255.598 1115.65 256.904 1114.08 256.995L1113.9 257H944.8C943.143 257 941.8 255.657 941.8 254C941.8 252.402 943.049 251.096 944.624 251.005L944.8 251H1113.9Z" fill="#2E186A"/>
<path fill-rule="evenodd" clip-rule="evenodd" d="M1025 265.4C1026.66 265.4 1028 266.744 1028 268.4C1028 269.998 1026.75 271.304 1025.18 271.395L1025 271.4H944.8C943.143 271.4 941.8 270.057 941.8 268.4C941.8 266.803 943.049 265.497 944.624 265.405L944.8 265.4H1025Z" fill="#2E186A"/>
<path fill-rule="evenodd" clip-rule="evenodd" d="M828.2 555.6H646.4C632.643 555.6 621.5 566.743 621.5 580.5V594.9C621.5 608.656 632.643 619.8 646.4 619.8H828.2C841.957 619.8 853.1 608.656 853.1 594.9V580.5C853.1 566.743 841.957 555.6 828.2 555.6ZM646.4 561.6H828.2C838.643 561.6 847.1 570.056 847.1 580.5V594.9C847.1 605.343 838.643 613.8 828.2 613.8H646.4C635.957 613.8 627.5 605.343 627.5 594.9V580.5C627.5 570.056 635.957 561.6 646.4 561.6Z" fill="#2E186A"/>
<path fill-rule="evenodd" clip-rule="evenodd" d="M822.6 578.699C824.256 578.699 825.6 580.042 825.6 581.699C825.6 583.297 824.351 584.603 822.776 584.694L822.6 584.699H653.6C651.943 584.699 650.6 583.356 650.6 581.699C650.6 580.102 651.849 578.796 653.423 578.704L653.6 578.699H822.6Z" fill="#2E186A"/>
<path fill-rule="evenodd" clip-rule="evenodd" d="M733.8 593.1C735.456 593.1 736.8 594.443 736.8 596.1C736.8 597.697 735.551 599.003 733.976 599.095L733.8 599.1H653.6C651.943 599.1 650.6 597.756 650.6 596.1C650.6 594.502 651.849 593.196 653.423 593.105L653.6 593.1H733.8Z" fill="#2E186A"/>
<path fill-rule="evenodd" clip-rule="evenodd" d="M567.7 104.3H385.9C372.143 104.3 361 115.443 361 129.2V143.6C361 157.357 372.143 168.5 385.9 168.5H567.7C581.353 168.5 592.486 157.366 592.6 143.625L592.6 129.2C592.6 115.443 581.457 104.3 567.7 104.3ZM385.9 110.3H567.7C578.143 110.3 586.6 118.757 586.6 129.2V143.6C586.514 154.033 578.047 162.5 567.7 162.5H385.9C375.457 162.5 367 154.043 367 143.6V129.2C367 118.757 375.457 110.3 385.9 110.3Z" fill="#2E186A"/>
<path fill-rule="evenodd" clip-rule="evenodd" d="M562.1 127.399C563.757 127.399 565.1 128.743 565.1 130.399C565.1 131.997 563.851 133.303 562.276 133.394L562.1 133.399H393C391.343 133.399 390 132.056 390 130.399C390 128.802 391.249 127.496 392.824 127.405L393 127.399H562.1Z" fill="#2E186A"/>
<path fill-rule="evenodd" clip-rule="evenodd" d="M473.2 141.8C474.857 141.8 476.2 143.143 476.2 144.8C476.2 146.397 474.951 147.703 473.376 147.795L473.2 147.8H393C391.343 147.8 390 146.457 390 144.8C390 143.202 391.249 141.896 392.824 141.805L393 141.8H473.2Z" fill="#2E186A"/>
<path fill-rule="evenodd" clip-rule="evenodd" d="M440.132 390.043C440.771 388.514 442.528 387.793 444.057 388.432C456.2 393.507 463.014 402.261 465.72 413.644L465.84 414.166L465.989 414.243C470.166 416.438 474.516 419.558 479.414 423.738L481.838 425.84C483.844 427.606 485.578 429.219 489.041 432.545L497.519 440.728C500.484 443.576 502.729 445.682 504.965 447.694L505.368 448.056L505.431 448.096C505.621 448.224 505.789 448.365 505.99 448.554L506.282 448.84L507.013 449.51C532.894 473.557 542.526 510.464 531.785 544.206L531.45 545.238L523.85 568.338C523.592 569.122 523.023 569.763 522.281 570.113L521.938 570.254L513.721 573.44C510.904 574.527 507.9 575.682 504.735 576.894L501.517 578.124C485.946 584.071 470.086 590.017 454.879 595.568L450.852 597.034L446.889 598.469C407.127 612.826 380.958 621.1 372.9 621.1C361.557 621.1 329.493 598.886 306.494 574.234C276.533 542.119 264.622 510.894 279.98 487.073C290.721 470.431 302.733 456.317 315.492 444.557C324.281 436.455 332.865 429.973 340.781 425.021L341.132 424.802L341.099 424.65C337.911 409.527 349.655 397.21 377.772 388.977L378.675 388.716C380.268 388.26 381.929 389.182 382.384 390.775C382.84 392.368 381.918 394.028 380.326 394.484C352.866 402.342 343.606 412.841 347.466 425.313C347.875 426.634 347.328 428.064 346.141 428.774C337.949 433.676 328.887 440.37 319.558 448.968C307.165 460.393 295.481 474.12 285.022 490.326C271.634 511.091 282.593 539.818 310.881 570.141C322.149 582.219 335.517 593.688 348.179 602.461L349.146 603.126C360.053 610.579 369.234 615.1 372.9 615.1C379.805 615.1 405.783 606.908 443.698 593.242L448.805 591.394C450.133 590.912 451.472 590.424 452.822 589.932C466.914 584.788 481.573 579.302 496.042 573.791L501.53 571.696C504.726 570.474 507.763 569.307 510.616 568.207L518.592 565.118L525.752 543.356C536.288 511.559 527.353 476.599 502.929 453.906L502.184 453.222L501.977 453.021L501.916 452.982C501.861 452.945 501.807 452.906 501.755 452.865L501.602 452.738L500.953 452.156C498.468 449.92 495.987 447.585 492.586 444.307L487.464 439.367C473.894 426.334 468.904 422.244 461.909 418.908C461.048 418.497 460.433 417.701 460.254 416.764C458.246 406.28 452.605 398.507 441.743 393.968C440.215 393.329 439.493 391.572 440.132 390.043Z" fill="#2E186A"/>
<path fill-rule="evenodd" clip-rule="evenodd" d="M460.301 415C461.701 422.3 461.201 429.2 461.001 433.4C460.201 450.9 453.701 460.4 451.701 466.9C464.501 459.3 476.301 441.7 482.101 430.2C478.301 426.8 466.701 418.1 460.301 415Z" fill="#2E186A"/>
<path fill-rule="evenodd" clip-rule="evenodd" d="M390.401 468.201C384.101 465.301 351.901 444.501 346.501 424.301C340.001 427.801 329.901 433.901 323.601 441.401C330.901 445.801 372.001 470.201 390.101 468.901C390.401 468.901 390.601 468.901 390.801 468.801C390.601 468.601 390.501 468.401 390.401 468.201Z" fill="#2E186A"/>
<path fill-rule="evenodd" clip-rule="evenodd" d="M439.801 468.4C446.701 448.2 441.501 425.8 436.601 419.2C431.401 439.4 419.701 451.8 419.701 451.8C400.001 429.4 379.501 416.7 379.501 416.7L380.101 416C379.201 416 378.701 416.1 378.701 416.1L371.301 423.7C371.301 423.7 406.301 450.3 417.701 514.5C425.101 556.2 428.901 595.3 428.901 595.3L450.601 594.1C450.701 594.1 432.301 490.3 439.801 468.4Z" fill="#FE7624"/>
<path fill-rule="evenodd" clip-rule="evenodd" d="M368.829 368.839C370.354 368.192 372.115 368.903 372.763 370.429C373.41 371.954 372.698 373.715 371.172 374.362C366.792 376.221 364.813 379.13 367.02 383.834C368.905 387.881 372.287 387.994 377.055 385.372C378.507 384.573 380.331 385.103 381.129 386.555C381.928 388.006 381.398 389.831 379.947 390.629C377.005 392.247 374.003 393.209 371.076 393.111C366.98 392.975 363.612 390.728 361.585 386.375C359.421 381.761 359.69 377.559 362.007 374.151C363.651 371.734 366.11 369.992 368.829 368.839Z" fill="#2E186A"/>
<path fill-rule="evenodd" clip-rule="evenodd" d="M431.213 333.705C432.757 333.104 434.495 333.869 435.096 335.413C441.348 351.475 445.017 372.533 445.3 386.942C445.333 388.599 444.016 389.968 442.359 390C440.703 390.033 439.334 388.716 439.301 387.06C439.032 373.316 435.482 352.946 429.505 337.589C428.904 336.045 429.669 334.306 431.213 333.705Z" fill="#2E186A"/>
<path fill-rule="evenodd" clip-rule="evenodd" d="M386.701 400.6L386.877 400.605C388.472 400.699 389.703 402.022 389.701 403.6L389.696 403.776L389.396 408.876C389.362 409.46 389.157 410.021 388.81 410.488L388.673 410.659L384.001 416.075L384.465 416.392C387.109 418.211 390.05 420.357 393.213 422.822C401.88 429.574 410.545 437.386 418.683 446.191L419.626 447.22L420.05 446.674L420.331 446.304C422.511 443.41 424.697 440.039 426.74 436.232C431.075 428.151 434.154 419.258 435.428 409.703C435.647 408.061 437.155 406.907 438.798 407.126C440.44 407.345 441.594 408.854 441.375 410.496C439.999 420.813 436.686 430.384 432.027 439.069C429.833 443.158 427.481 446.785 425.123 449.914L424.657 450.526C423.446 452.101 422.486 453.221 421.882 453.86C420.669 455.144 418.615 455.107 417.449 453.781C416.727 452.961 415.998 452.146 415.261 451.337C407.076 442.348 398.299 434.39 389.526 427.555C386.694 425.349 384.052 423.41 381.658 421.746L381.065 421.335C380.304 420.812 379.618 420.351 379.013 419.953L378.218 419.438C378.085 419.353 377.986 419.29 377.921 419.25C376.408 418.312 376.049 416.283 377.11 414.887L377.23 414.74L383.466 407.509L383.706 403.424C383.8 401.829 385.124 400.598 386.701 400.6Z" fill="#2E186A"/>
<path fill-rule="evenodd" clip-rule="evenodd" d="M378.152 368.855L370.952 371.255C369.293 371.808 368.468 373.649 369.126 375.242L369.288 375.59L371.317 379.76L372.931 383.057C373.829 384.886 374.725 386.699 375.603 388.468L377.341 391.95C380.497 398.243 382.902 402.856 384.312 405.249L384.861 406.162C389.118 413.125 392.332 415.706 401.982 419.585C407.83 421.935 415.843 422.486 423.075 420.948C431.48 419.16 438.165 414.788 441.492 408.026C444.416 402.084 445.485 394.442 445.237 385.841C445.151 382.842 444.905 379.921 444.555 377.177L444.427 376.217C444.362 375.751 444.296 375.307 444.23 374.886L444.164 374.473C444.09 374.019 444.025 373.653 443.975 373.384L443.946 373.229C443.681 371.867 442.517 370.864 441.131 370.804C438.891 370.707 435.526 371.095 431.334 371.815C430.243 372.002 429.148 372.204 428.074 372.412L426.435 372.739L424.859 373.071L424.735 373.101C419.701 374.429 414.849 376.018 410.205 377.812C405.114 379.779 400.532 381.888 396.527 384.001L396.006 384.277L395.014 384.815L394.154 385.292L394.047 385.125C390.218 379.175 383.377 370.81 380.673 369.146C379.917 368.681 378.994 368.574 378.152 368.855ZM376.093 375.866L378.501 375.063L378.666 375.224C381.727 378.23 388.25 386.642 390.448 390.803C391.27 392.359 393.249 392.876 394.728 391.921L395.213 391.62C395.391 391.512 395.609 391.381 395.865 391.23C396.845 390.653 398.002 390.006 399.327 389.307C403.132 387.3 407.503 385.288 412.368 383.409L413.584 382.945C417.249 381.571 421.045 380.331 424.958 379.254L426.205 378.918L427.384 378.669C427.632 378.618 427.901 378.563 428.19 378.505C429.547 378.233 430.954 377.968 432.349 377.728L432.782 377.655C434.751 377.323 436.514 377.076 437.969 376.933L438.462 376.886L438.56 377.602C438.574 377.712 438.589 377.823 438.603 377.937C438.93 380.497 439.159 383.224 439.239 386.013C439.462 393.726 438.517 400.483 436.109 405.377C431.395 414.956 415.15 418.411 404.219 414.018L403.351 413.665C395.591 410.485 393.405 408.656 389.958 402.997L389.577 402.364C388.287 400.203 385.876 395.583 382.705 389.26L380.976 385.797C380.102 384.037 379.21 382.231 378.316 380.41L376.093 375.866Z" fill="#2E186A"/>
<path fill-rule="evenodd" clip-rule="evenodd" d="M374.601 377.401C374.601 377.401 366.301 369.601 361.701 360.601C357.301 352.101 359.201 341.601 366.501 335.501C372.701 330.401 378.501 331.801 378.501 331.801C378.501 331.801 368.001 321.001 376.301 307.101C379.301 302.201 384.101 298.701 389.701 297.501C403.401 294.501 410.401 305.001 410.401 305.001C410.401 305.001 418.401 274.701 452.101 283.101C455.501 284.001 460.001 287.601 462.401 290.201C476.701 305.901 449.601 335.501 433.101 341.401C415.001 347.901 403.401 347.501 396.301 344.401C401.401 345.801 403.301 374.801 374.601 377.401Z" fill="#2E186A"/>
<path fill-rule="evenodd" clip-rule="evenodd" d="M424.059 365.088C425.557 364.533 427.216 365.25 427.848 366.695L427.914 366.859L434.214 383.859C434.92 385.762 433.572 387.782 431.579 387.896L431.401 387.901H424.901C423.245 387.901 421.901 386.558 421.901 384.901C421.901 383.304 423.15 381.998 424.725 381.906L424.901 381.901L427.089 381.9L422.288 368.944C421.733 367.446 422.45 365.787 423.895 365.154L424.059 365.088Z" fill="#2E186A"/>
<path fill-rule="evenodd" clip-rule="evenodd" d="M433.664 368.914C434.629 368.675 435.1 367.222 434.716 365.667C434.332 364.112 433.238 363.045 432.273 363.283C431.308 363.522 430.837 364.975 431.221 366.53C431.605 368.085 432.699 369.152 433.664 368.914Z" fill="#2E186A"/>
<path fill-rule="evenodd" clip-rule="evenodd" d="M417.437 372.778C418.43 372.724 419.164 371.384 419.078 369.785C418.991 368.186 418.116 366.933 417.123 366.987C416.131 367.04 415.396 368.38 415.483 369.98C415.57 371.579 416.445 372.832 417.437 372.778Z" fill="#2E186A"/>
<path fill-rule="evenodd" clip-rule="evenodd" d="M412.088 355.602C413.744 355.539 415.137 356.831 415.199 358.487C415.259 360.083 414.06 361.435 412.49 361.586L412.314 361.598C410.809 361.654 409.644 362.192 408.704 363.079C408.16 363.592 407.813 364.092 407.669 364.366L407.632 364.441C406.947 365.949 405.168 366.616 403.66 365.931C402.151 365.245 401.484 363.467 402.17 361.958L402.299 361.694C402.424 361.453 402.592 361.162 402.808 360.833C403.284 360.107 403.873 359.387 404.587 358.714C406.535 356.877 409.049 355.716 412.088 355.602Z" fill="#2E186A"/>
<path fill-rule="evenodd" clip-rule="evenodd" d="M432.661 345.555C434.709 345.593 436.589 346.29 438.091 347.747C439.279 348.901 439.308 350.801 438.154 351.99C437.046 353.131 435.251 353.203 434.058 352.186L433.912 352.053C433.569 351.72 433.15 351.565 432.548 351.553C431.758 351.538 430.778 351.787 429.764 352.228C429.14 352.499 428.666 352.765 428.445 352.91C427.059 353.818 425.2 353.43 424.292 352.044C423.384 350.658 423.771 348.799 425.157 347.891L425.48 347.688C425.954 347.403 426.597 347.062 427.372 346.725C429.108 345.971 430.881 345.521 432.661 345.555Z" fill="#2E186A"/>
<path fill-rule="evenodd" clip-rule="evenodd" d="M426.821 389.931L426.819 389.906L416.919 390.506C414.588 390.648 413.305 393.281 414.631 395.204C414.814 395.468 415.097 395.808 415.491 396.192C416.078 396.764 416.797 397.318 417.655 397.823C419.514 398.916 421.806 399.65 424.539 399.889C424.652 399.899 424.766 399.903 424.88 399.9C428.117 399.815 430.111 397.805 430.317 395.05C430.377 394.256 430.287 393.481 430.102 392.742C430.036 392.48 429.961 392.232 429.882 392.015L429.819 391.849L429.706 391.594C429.681 391.544 429.644 391.479 429.546 391.308L429.503 391.216C429.424 391.066 429.288 390.957 428.431 390.261L428.117 390.112C427.842 389.991 427.665 389.959 427.171 389.942L426.821 389.931Z" fill="#2E186A"/>
<path fill-rule="evenodd" clip-rule="evenodd" d="M393.107 460.649C394.573 460.013 396.268 460.639 396.978 462.048L397.076 462.261L397.462 463.173L397.918 464.276C398.221 465.017 398.545 465.824 398.887 466.691C400.252 470.154 401.617 473.869 402.892 477.693C404.282 481.862 405.481 485.912 406.433 489.757C407.515 494.134 408.252 498.145 408.587 501.721C408.742 503.371 407.53 504.833 405.881 504.988C404.231 505.143 402.768 503.931 402.614 502.281C402.309 499.033 401.624 495.306 400.608 491.198C399.698 487.519 398.543 483.618 397.2 479.591C396.099 476.289 394.927 473.065 393.748 470.023L393.305 468.891C393.04 468.218 392.785 467.582 392.544 466.988L391.926 465.488L391.548 464.595C390.889 463.075 391.587 461.308 393.107 460.649Z" fill="#2E186A"/>
<path fill-rule="evenodd" clip-rule="evenodd" d="M446.442 461.412C448.034 461.274 449.443 462.406 449.669 463.967L449.702 464.284L450.396 472.099L450.791 476.419C451.174 480.569 451.564 484.687 451.953 488.66L452.286 492.027C452.457 493.74 452.625 495.395 452.79 496.987L453.084 499.783C453.259 501.431 452.065 502.909 450.417 503.084C448.829 503.253 447.398 502.149 447.141 500.593L447.117 500.418L446.822 497.607C446.69 496.326 446.555 495.006 446.418 493.649L445.814 487.53C445.535 484.655 445.257 481.716 444.981 478.752L444.287 471.162L443.711 464.658C443.569 463.008 444.792 461.554 446.442 461.412Z" fill="#2E186A"/>
<path fill-rule="evenodd" clip-rule="evenodd" d="M367.71 495.057C368.949 493.957 370.845 494.07 371.945 495.31C373.002 496.501 372.938 498.3 371.83 499.414L371.692 499.545L356.592 512.945C355.599 513.826 354.145 513.95 353.018 513.249C344.715 508.091 337.879 508.26 332.317 511.517C331.476 512.01 330.747 512.535 330.138 513.052L329.81 513.34C329.719 513.422 329.648 513.491 329.595 513.542L329.517 513.623C328.4 514.847 326.503 514.934 325.279 513.817C324.055 512.7 323.968 510.803 325.085 509.579C325.319 509.321 325.71 508.941 326.253 508.479C327.119 507.744 328.13 507.016 329.285 506.34C336.152 502.318 344.567 501.826 353.936 506.851L354.235 507.014L367.71 495.057Z" fill="#2E186A"/>
<path fill-rule="evenodd" clip-rule="evenodd" d="M350.595 508.415C351.416 506.975 353.248 506.474 354.687 507.295L384.464 524.234C390.11 527.434 393.582 529.387 394.042 529.618C395.524 530.359 396.125 532.161 395.384 533.643C394.67 535.07 392.973 535.679 391.525 535.061L391.359 534.984C390.876 534.743 388.379 533.345 384.134 530.943L368.494 522.064L351.715 512.507C350.275 511.686 349.774 509.854 350.595 508.415Z" fill="#2E186A"/>
<path fill-rule="evenodd" clip-rule="evenodd" d="M477.395 489.654C478.859 489.012 480.556 489.631 481.272 491.037L481.348 491.196L488.848 508.296C489.513 509.813 488.823 511.583 487.305 512.249C485.842 512.89 484.145 512.271 483.428 510.866L483.353 510.706L475.853 493.606C475.188 492.089 475.878 490.319 477.395 489.654Z" fill="#2E186A"/>
<path fill-rule="evenodd" clip-rule="evenodd" d="M390.801 598.801C390.801 598.801 353.301 583.201 306.901 551.001C260.501 518.801 231.001 568.601 243.401 589.001C254.401 607.001 316.201 668.701 316.201 668.701L526.501 667.001C526.501 667.001 575.901 604.801 583.701 595.101C609.901 562.201 588.301 544.701 559.401 542.201C532.301 539.801 459.001 593.201 450.001 600.101L390.801 598.801Z" fill="#2E186A"/>
<path fill-rule="evenodd" clip-rule="evenodd" d="M519.501 507.701H384.301C382.501 507.701 381.001 508.901 380.601 510.601L362.301 588.101H328.301C328.301 588.101 325.201 604.001 343.201 604.001C347.801 604.001 354.601 604.001 362.201 604.001C362.501 604.101 362.901 604.201 363.301 604.201H498.501C500.301 604.201 501.801 603.001 502.201 601.301L523.201 512.401C523.801 510.001 522.001 507.701 519.501 507.701Z" fill="#FE7624"/>
<path fill-rule="evenodd" clip-rule="evenodd" d="M1520.59 660.4C1522.24 660.393 1523.59 661.73 1523.6 663.387C1523.61 664.984 1522.36 666.296 1520.79 666.394L1520.61 666.4L3.41423 673.4C1.7574 673.408 0.408067 672.071 0.400423 670.414C0.393052 668.817 1.63593 667.505 3.2103 667.406L3.38655 667.4L1520.59 660.4Z" fill="#2E186A"/>
</svg>
